# xmcd
# 
# Track frame offsets:
#     150
#     12365
#     23233
#     35081
#     46199
#     57716
#     70746
#     84023
#     97620
#     112314
#     123724
#     137501
#     149843
#     162780
#     175190
#     189045
#     202545
#     216360
#     228742
#     242365
#     256195
#     269638
#     281993
#     294998
#     307030
# 
# Disc length: 4287
# 
# Revision: 2
# Processed by: cddbd v1.5.2PL0 Copyright (c) Steve Scherf et al.
# Submitted via: fre:ac v1.0.27
# 
DISCID=6d10bd19
DTITLE=Louis Armstrong - The Real... Louis Armstrong (The Ultimate Collection) CD1
DYEAR=2012
DGENRE=
TTITLE0=Gut Bucket Blues
TTITLE1=My Heart
TTITLE2=Yes! I'm In The Barrel
TTITLE3=Come Back, Sweet Papa
TTITLE4=Georgia Grind
TTITLE5=Heebie Jeebies
TTITLE6=Cornet Chop Suey
TTITLE7=Oriental Strut
TTITLE8=You're Next
TTITLE9=Muskrat Ramble
TTITLE10=Don't Forget To Mess Around
TTITLE11=I'm Gonna Gitcha
TTITLE12=Droppin' Shucks
TTITLE13=Who'sit
TTITLE14=King Of The Zulus
TTITLE15=Big Fat My And Skinny Pa
TTITLE16=Lonesome Blues
TTITLE17=Sweet Little Papa
TTITLE18=Jazz Lips
TTITLE19=Skid-Dat-De-Dat
TTITLE20=Big Butter And Egg Man
TTITLE21=Sunset Cafe Stomp
TTITLE22=You Made Me Love You
TTITLE23=Irish Black Bottom
TTITLE24=Tight Like This
EXTD=
EXTT0=
EXTT1=
EXTT2=
EXTT3=
EXTT4=
EXTT5=
EXTT6=
EXTT7=
EXTT8=
EXTT9=
EXTT10=
EXTT11=
EXTT12=
EXTT13=
EXTT14=
EXTT15=
EXTT16=
EXTT17=
EXTT18=
EXTT19=
EXTT20=
EXTT21=
EXTT22=
EXTT23=
EXTT24=
PLAYORDER=
